<mxfile host="app.diagrams.net" modified="2024-05-26T07:52:08.517Z" agent="Mozilla/5.0 (Windows NT 10.0; Win64; x64) AppleWebKit/537.36 (KHTML, like Gecko) Chrome/124.0.0.0 Safari/537.36" etag="MVbfGjvGx5RN_DkGX9wT" version="24.4.8" type="device">
  <diagram name="第 1 页" id="dXrVgooJHMjQglT5HgRH">
    <mxGraphModel dx="1373" dy="707" grid="1" gridSize="10" guides="1" tooltips="1" connect="1" arrows="1" fold="1" page="1" pageScale="1" pageWidth="827" pageHeight="1169" math="0" shadow="0">
      <root>
        <mxCell id="0" />
        <mxCell id="1" parent="0" />
        <mxCell id="bm20CL4cJ3gk3hjGzm2E-1" value="&lt;font style=&quot;font-size: 16px;&quot;&gt;Users&lt;/font&gt;" style="rounded=0;whiteSpace=wrap;html=1;" vertex="1" parent="1">
          <mxGeometry x="120" y="180" width="120" height="60" as="geometry" />
        </mxCell>
        <mxCell id="bm20CL4cJ3gk3hjGzm2E-2" value="&lt;font style=&quot;font-size: 16px;&quot;&gt;Display Results&lt;/font&gt;" style="rounded=0;whiteSpace=wrap;html=1;" vertex="1" parent="1">
          <mxGeometry x="120" y="584.5" width="120" height="60" as="geometry" />
        </mxCell>
        <mxCell id="bm20CL4cJ3gk3hjGzm2E-3" value="" style="rounded=0;whiteSpace=wrap;html=1;" vertex="1" parent="1">
          <mxGeometry x="360" y="585" width="120" height="60" as="geometry" />
        </mxCell>
        <mxCell id="bm20CL4cJ3gk3hjGzm2E-4" value="&lt;font style=&quot;font-size: 16px;&quot;&gt;Update NewBalance&lt;/font&gt;" style="rounded=0;whiteSpace=wrap;html=1;" vertex="1" parent="1">
          <mxGeometry x="360" y="480" width="120" height="60" as="geometry" />
        </mxCell>
        <mxCell id="bm20CL4cJ3gk3hjGzm2E-5" value="&lt;font style=&quot;font-size: 16px;&quot;&gt;Account Data&lt;/font&gt;" style="rounded=0;whiteSpace=wrap;html=1;" vertex="1" parent="1">
          <mxGeometry x="120" y="480" width="120" height="60" as="geometry" />
        </mxCell>
        <mxCell id="bm20CL4cJ3gk3hjGzm2E-6" value="&lt;font style=&quot;font-size: 16px;&quot;&gt;Manage Accounts&lt;/font&gt;" style="rounded=0;whiteSpace=wrap;html=1;" vertex="1" parent="1">
          <mxGeometry x="360" y="380" width="120" height="60" as="geometry" />
        </mxCell>
        <mxCell id="bm20CL4cJ3gk3hjGzm2E-7" value="&lt;font style=&quot;font-size: 16px;&quot;&gt;Transaction Form&lt;/font&gt;" style="rounded=0;whiteSpace=wrap;html=1;" vertex="1" parent="1">
          <mxGeometry x="120" y="380" width="120" height="60" as="geometry" />
        </mxCell>
        <mxCell id="bm20CL4cJ3gk3hjGzm2E-8" value="&lt;font style=&quot;font-size: 16px;&quot;&gt;Login Form&lt;/font&gt;" style="rounded=0;whiteSpace=wrap;html=1;" vertex="1" parent="1">
          <mxGeometry x="120" y="280" width="120" height="60" as="geometry" />
        </mxCell>
        <mxCell id="bm20CL4cJ3gk3hjGzm2E-9" value="&lt;font style=&quot;font-size: 16px;&quot;&gt;Validate User&lt;/font&gt;" style="rounded=0;whiteSpace=wrap;html=1;" vertex="1" parent="1">
          <mxGeometry x="360" y="280" width="120" height="60" as="geometry" />
        </mxCell>
        <mxCell id="bm20CL4cJ3gk3hjGzm2E-10" value="&lt;font style=&quot;font-size: 16px;&quot;&gt;ATM Manager&lt;/font&gt;" style="rounded=0;whiteSpace=wrap;html=1;" vertex="1" parent="1">
          <mxGeometry x="360" y="180" width="120" height="60" as="geometry" />
        </mxCell>
        <mxCell id="bm20CL4cJ3gk3hjGzm2E-11" value="" style="endArrow=classic;html=1;rounded=0;exitX=0.5;exitY=1;exitDx=0;exitDy=0;entryX=0.5;entryY=0;entryDx=0;entryDy=0;" edge="1" parent="1" source="bm20CL4cJ3gk3hjGzm2E-1" target="bm20CL4cJ3gk3hjGzm2E-8">
          <mxGeometry width="50" height="50" relative="1" as="geometry">
            <mxPoint x="390" y="460" as="sourcePoint" />
            <mxPoint x="440" y="410" as="targetPoint" />
          </mxGeometry>
        </mxCell>
        <mxCell id="bm20CL4cJ3gk3hjGzm2E-12" value="" style="endArrow=classic;html=1;rounded=0;exitX=0.5;exitY=1;exitDx=0;exitDy=0;entryX=0.5;entryY=0;entryDx=0;entryDy=0;" edge="1" parent="1">
          <mxGeometry width="50" height="50" relative="1" as="geometry">
            <mxPoint x="419.71000000000004" y="240" as="sourcePoint" />
            <mxPoint x="419.71000000000004" y="280" as="targetPoint" />
          </mxGeometry>
        </mxCell>
        <mxCell id="bm20CL4cJ3gk3hjGzm2E-13" value="" style="endArrow=classic;html=1;rounded=0;exitX=0.5;exitY=1;exitDx=0;exitDy=0;entryX=0.5;entryY=0;entryDx=0;entryDy=0;" edge="1" parent="1">
          <mxGeometry width="50" height="50" relative="1" as="geometry">
            <mxPoint x="179.71" y="340" as="sourcePoint" />
            <mxPoint x="179.71" y="380" as="targetPoint" />
          </mxGeometry>
        </mxCell>
        <mxCell id="bm20CL4cJ3gk3hjGzm2E-14" value="" style="endArrow=classic;html=1;rounded=0;exitX=0.5;exitY=1;exitDx=0;exitDy=0;entryX=0.5;entryY=0;entryDx=0;entryDy=0;" edge="1" parent="1">
          <mxGeometry width="50" height="50" relative="1" as="geometry">
            <mxPoint x="419.71000000000004" y="340" as="sourcePoint" />
            <mxPoint x="419.71000000000004" y="380" as="targetPoint" />
          </mxGeometry>
        </mxCell>
        <mxCell id="bm20CL4cJ3gk3hjGzm2E-15" value="" style="endArrow=classic;html=1;rounded=0;exitX=0.5;exitY=1;exitDx=0;exitDy=0;entryX=0.5;entryY=0;entryDx=0;entryDy=0;" edge="1" parent="1">
          <mxGeometry width="50" height="50" relative="1" as="geometry">
            <mxPoint x="179.71" y="440" as="sourcePoint" />
            <mxPoint x="179.71" y="480" as="targetPoint" />
          </mxGeometry>
        </mxCell>
        <mxCell id="bm20CL4cJ3gk3hjGzm2E-16" value="" style="endArrow=classic;html=1;rounded=0;exitX=0.5;exitY=1;exitDx=0;exitDy=0;entryX=0.5;entryY=0;entryDx=0;entryDy=0;" edge="1" parent="1">
          <mxGeometry width="50" height="50" relative="1" as="geometry">
            <mxPoint x="179.71" y="540" as="sourcePoint" />
            <mxPoint x="179.71" y="580" as="targetPoint" />
          </mxGeometry>
        </mxCell>
        <mxCell id="bm20CL4cJ3gk3hjGzm2E-17" value="" style="endArrow=classic;html=1;rounded=0;exitX=0.5;exitY=1;exitDx=0;exitDy=0;entryX=0.5;entryY=0;entryDx=0;entryDy=0;" edge="1" parent="1">
          <mxGeometry width="50" height="50" relative="1" as="geometry">
            <mxPoint x="419.71000000000004" y="540" as="sourcePoint" />
            <mxPoint x="419.71000000000004" y="580" as="targetPoint" />
          </mxGeometry>
        </mxCell>
        <mxCell id="bm20CL4cJ3gk3hjGzm2E-18" value="" style="endArrow=classic;html=1;rounded=0;exitX=0.5;exitY=1;exitDx=0;exitDy=0;entryX=0.5;entryY=0;entryDx=0;entryDy=0;" edge="1" parent="1">
          <mxGeometry width="50" height="50" relative="1" as="geometry">
            <mxPoint x="419.71000000000004" y="440" as="sourcePoint" />
            <mxPoint x="419.71000000000004" y="480" as="targetPoint" />
          </mxGeometry>
        </mxCell>
        <mxCell id="bm20CL4cJ3gk3hjGzm2E-19" value="" style="endArrow=classic;startArrow=classic;html=1;rounded=0;exitX=1;exitY=0.5;exitDx=0;exitDy=0;" edge="1" parent="1" source="bm20CL4cJ3gk3hjGzm2E-8" target="bm20CL4cJ3gk3hjGzm2E-9">
          <mxGeometry width="50" height="50" relative="1" as="geometry">
            <mxPoint x="390" y="400" as="sourcePoint" />
            <mxPoint x="440" y="350" as="targetPoint" />
          </mxGeometry>
        </mxCell>
        <mxCell id="bm20CL4cJ3gk3hjGzm2E-20" value="" style="endArrow=classic;startArrow=classic;html=1;rounded=0;exitX=1;exitY=0.5;exitDx=0;exitDy=0;" edge="1" parent="1">
          <mxGeometry width="50" height="50" relative="1" as="geometry">
            <mxPoint x="240" y="409.71" as="sourcePoint" />
            <mxPoint x="360" y="409.71" as="targetPoint" />
          </mxGeometry>
        </mxCell>
        <mxCell id="bm20CL4cJ3gk3hjGzm2E-21" value="" style="endArrow=classic;startArrow=classic;html=1;rounded=0;exitX=1;exitY=0.5;exitDx=0;exitDy=0;" edge="1" parent="1">
          <mxGeometry width="50" height="50" relative="1" as="geometry">
            <mxPoint x="240" y="509.71" as="sourcePoint" />
            <mxPoint x="360" y="509.71" as="targetPoint" />
          </mxGeometry>
        </mxCell>
      </root>
    </mxGraphModel>
  </diagram>
</mxfile>
